<svg xmlns="http://www.w3.org/2000/svg" viewBox="0 0 64 64" role="img" aria-labelledby="title desc">
  <title id="title">Collectively Bzy bee mark</title>
  <desc id="desc">A honey-gold bee with pale wings on a deep teal background.</desc>
  <rect width="64" height="64" rx="18" fill="#243d41"/>
  <g transform="translate(32 33) rotate(-8)">
    <path d="M-1-8C-14-22-25-17-23-7c2 8 10 12 22 9" fill="#f5cc79" stroke="#edc463" stroke-width="2"/>
    <path d="M3-8C16-22 27-17 25-7c-2 8-10 12-22 9" fill="#f5cc79" stroke="#edc463" stroke-width="2"/>
    <ellipse cx="0" cy="1" rx="15" ry="12" fill="#e8ac43" stroke="#f3ca70" stroke-width="2"/>
    <path d="M-8-9v20M0-11v22M8-9v18" stroke="#243d41" stroke-width="3" stroke-linecap="round"/>
    <circle cx="11" cy="-2" r="2" fill="#243d41"/>
    <path d="M-15 2-22 0l6 6" fill="#edc463"/>
    <path d="M10-10q2-7 7-9M5-11q-1-7-6-9" fill="none" stroke="#f3ca70" stroke-width="2" stroke-linecap="round"/>
  </g>
</svg>
